<?xml version="1.0" encoding="UTF-8"?>
<svg version="1.1" xmlns="http://www.w3.org/2000/svg" width="512" height="512">
<path d="M0 0 C6.02990708 4.79972537 9.62244651 12.01153382 13.56445312 18.515625 C17.39640764 24.52819451 20.03969241 27.4092107 27 29 C28.52896045 29.46711339 30.05496164 29.94400409 31.578125 30.4296875 C33.92857396 31.15927317 36.27847392 31.88332816 38.640625 32.57421875 C42.28521341 33.72546543 44.68558276 34.72794436 47.609375 37.2578125 C49.56947732 41.12295809 49.23926019 42.84610347 48 47 C46.25465412 50.21639152 44.1963933 53.1559745 42.0625 56.125 C41.473479 56.96466309 40.88445801 57.80432617 40.27758789 58.66943359 C36.17882115 64.47115819 31.90686865 70.11389563 27.5234375 75.703125 C24.57587946 79.50386202 21.82139103 83.4362475 19.0625 87.375 C15.03947945 93.11250529 10.99585942 98.83218903 6.875 104.5 C6.41359619 105.14114746 5.95219238 105.78229492 5.47680664 106.44287109 C2.23351719 110.8832414 2.23351719 110.8832414 0 112 C-6.91072398 112.38618752 -12.62619781 111.31790168 -19.25 109.4375 C-26.63995317 106.93260711 -26.63995317 106.93260711 -34 108 C-35.77234496 109.89447294 -37.20533157 111.65028653 -38.6875 113.75 C-39.55679767 114.93265493 -40.42660478 116.11493555 -41.296875 117.296875 C-41.73966797 117.90724609 -42.18246094 118.51761719 -42.63867188 119.14648438 C-44.84199845 122.14642257 -47.14547891 125.06764259 -49.4375 128 C-52.21099783 131.56147394 -54.75873193 135.07958255 -57 139 C-56.31035156 139.83660156 -55.62070312 140.67320312 -54.91015625 141.53515625 C-27.70421333 175.02650939 -20.97911885 211.82039472 -16.36355877 253.78155088 C-16.01869158 256.90805791 -15.6688787 260.0340042 -15.31911874 263.15996706 C-14.49334897 270.54062983 -13.67519885 277.92210801 -12.86230469 285.30419922 C-12.02925178 292.86832586 -11.18420825 300.43104388 -10.33315253 307.99316442 C-9.59624881 314.54425894 -8.86628461 321.09610127 -8.14184594 327.64858592 C-7.71191396 331.53700061 -7.27965298 335.42511476 -6.84087372 339.31254196 C-6.42902363 342.9644869 -6.02599103 346.61730746 -5.62924957 350.27092361 C-5.41561073 352.21967125 -5.19349371 354.16748388 -4.97094727 356.11523438 C-2.57510504 378.46300798 -4.98496596 396.34651591 -19.1875 414.625 C-30.76920848 428.17559892 -47.26242863 438.39859889 -65.30178475 440.2342217 C-71.6397709 440.60994092 -77.98478338 440.55583659 -84.33129883 440.53344727 C-86.45354305 440.54051774 -88.57578224 440.54926747 -90.69801331 440.55955505 C-96.4254994 440.58193418 -102.15270765 440.57913587 -107.88022065 440.57023358 C-112.67850837 440.56509922 -117.476745 440.5724362 -122.27502745 440.57970566 C-133.60405195 440.59666889 -144.93294165 440.59317563 -156.26196289 440.57641602 C-167.91136295 440.55950417 -179.56038802 440.57532479 -191.20974714 440.6076389 C-201.24675812 440.63441568 -211.28365297 440.64158882 -221.32069606 440.63312382 C-227.29981256 440.62821747 -233.27870371 440.63028523 -239.25779152 440.65091133 C-244.88463605 440.6693954 -250.51094551 440.66315525 -256.13776207 440.63871193 C-258.18986628 440.63374391 -260.24201217 440.637088 -262.29408264 440.64986038 C-284.70094475 440.77817352 -303.86925836 435.70129757 -320.46484375 419.765625 C-327.68376196 411.8904415 -333.16609781 402.98318061 -337 393 C-337.31839844 392.2265625 -337.63679688 391.453125 -337.96484375 390.65625 C-342.25696287 378.78863953 -339.99517178 364.57081249 -338.59472656 352.31396484 C-338.44285927 350.92867821 -338.29173974 349.54330943 -338.14129639 348.15786743 C-337.73590506 344.44578299 -337.31968024 340.73499253 -336.90086079 337.02440214 C-336.4595169 333.10090842 -336.02707172 329.17643147 -335.59320068 325.25210571 C-334.86295632 318.66004031 -334.12552837 312.06880857 -333.38378906 305.47802734 C-332.53326369 297.91976968 -331.69445624 290.36028174 -330.86194253 282.80002058 C-330.053225 275.45871099 -329.23567493 268.11840886 -328.41442108 260.77849197 C-328.0687648 257.68771475 -327.72609666 254.59662977 -327.38605499 251.50522995 C-321.68986554 199.81342209 -309.69193914 154.01476664 -267.26171875 119.9140625 C-249.40178857 106.16948662 -228.85335609 96.37625878 -207 91 C-205.71996094 90.67902344 -204.43992188 90.35804688 -203.12109375 90.02734375 C-182.64343625 85.5263737 -157.28945699 85.76878846 -137 91 C-136.23187988 91.18804199 -135.46375977 91.37608398 -134.67236328 91.56982422 C-110.75172294 97.56309608 -89.78247997 109.17852275 -71 125 C-66.49129546 120.74747185 -62.77179694 116.03317166 -59 111.125 C-58.09507812 109.95904297 -58.09507812 109.95904297 -57.171875 108.76953125 C-53.67690844 104.24886799 -50.28933418 99.67234969 -47 95 C-48.41518558 91.9992992 -49.83242433 88.99957233 -51.25 86 C-51.64574219 85.16082031 -52.04148437 84.32164063 -52.44921875 83.45703125 C-54.6269164 78.85173622 -56.84597133 74.28231986 -59.21264648 69.77075195 C-60.75202819 66.30869442 -61.12422397 63.55152572 -60 60 C-57.79381822 56.58041824 -55.18205812 53.60564986 -52.44628906 50.59960938 C-50.36539688 48.29812295 -48.35010657 45.94179974 -46.32666016 43.58984375 C-44.66690571 41.66359909 -42.99864572 39.74503663 -41.328125 37.828125 C-36.69306854 32.50400091 -32.10784512 27.1374059 -27.51904297 21.7734375 C-25.92249615 19.90951656 -24.32291044 18.0482387 -22.72265625 16.1875 C-22.18326416 15.55980713 -21.64387207 14.93211426 -21.08813477 14.28540039 C-20.06191804 13.091329 -19.03510408 11.89777052 -18.00756836 10.70483398 C-15.87692854 8.22393185 -13.79558453 5.73836259 -11.78125 3.16015625 C-8.71337894 -0.56031019 -4.59776363 -1.11009068 0 0 Z M-71 129 C-72.36094305 130.31553764 -72.36094305 130.31553764 -73.72265625 132.078125 C-74.25624756 132.73796387 -74.78983887 133.39780273 -75.33959961 134.07763672 C-75.90815674 134.7945166 -76.47671387 135.51139648 -77.0625 136.25 C-77.9453064 137.35045654 -77.9453064 137.35045654 -78.84594727 138.47314453 C-82.84601552 143.48265752 -86.73170451 148.56790369 -90.54296875 153.72265625 C-94.28257518 158.75090004 -98.17322109 163.66520854 -102.04077148 168.59521484 C-105.4767962 172.98885211 -108.79280211 177.43637442 -112 182 C-116.13332583 181.08662013 -119.59264682 179.20861657 -123.3125 177.25 C-136.27958809 170.60425575 -150.25324312 165.45382382 -165 166 C-164.95359375 164.97519531 -164.9071875 163.95039063 -164.859375 162.89453125 C-164.82183989 161.53388344 -164.78544159 160.17320395 -164.75 158.8125 C-164.69972656 157.80219727 -164.69972656 157.80219727 -164.6484375 156.77148438 C-164.57691267 153.10583689 -164.88536906 151.17726435 -166.89453125 148.0703125 C-169.08993747 145.91156426 -169.94890229 145.09245751 -173 145 C-176.7810303 146.08029437 -177.76204175 146.64306263 -180 150 C-180.14245897 152.76655324 -180.18769445 155.42653306 -180.125 158.1875 C-180.11597656 158.93708984 -180.10695313 159.68667969 -180.09765625 160.45898438 C-180.07412578 162.30612654 -180.03825561 164.15310412 -180 166 C-181.15371094 165.96648437 -182.30742187 165.93296875 -183.49609375 165.8984375 C-187.86560041 165.90419822 -191.83000115 166.58864228 -196.0625 167.625 C-196.7949292 167.80248779 -197.5273584 167.97997559 -198.28198242 168.1628418 C-214.14484806 172.19310743 -228.47730678 179.42429795 -241 190 C-241.81210938 190.67804688 -242.62421875 191.35609375 -243.4609375 192.0546875 C-260.85225621 207.09148922 -271.96515993 226.72817007 -277.375 248.9375 C-277.62697144 249.96593018 -277.62697144 249.96593018 -277.8840332 251.01513672 C-278.94985804 255.76096506 -279.14123949 260.13810203 -279 265 C-280.10859375 264.95359375 -281.2171875 264.9071875 -282.359375 264.859375 C-283.82288968 264.82184898 -285.28643356 264.78544971 -286.75 264.75 C-287.84441406 264.69972656 -287.84441406 264.69972656 -288.9609375 264.6484375 C-292.5082962 264.58394007 -294.56834751 264.68730686 -297.48046875 266.796875 C-299.71972672 270.04351123 -299.61788499 272.15538228 -299 276 C-296.09916857 279.12226895 -294.50825726 279.94733085 -290.23046875 280.390625 C-288.88225415 280.36431837 -287.53430482 280.31701804 -286.1875 280.25 C-285.49462891 280.23195313 -284.80175781 280.21390625 -284.08789062 280.1953125 C-282.39132336 280.14851064 -280.69547524 280.07677624 -279 280 C-278.97421875 280.76441406 -278.9484375 281.52882813 -278.921875 282.31640625 C-277.40916631 310.88597263 -262.73345316 335.38129986 -241.95556641 354.31054688 C-225.52571437 368.50462629 -201.92827291 379.47670159 -180 379 C-180.05800781 380.02480469 -180.11601562 381.04960937 -180.17578125 382.10546875 C-180.22269957 383.46610011 -180.26819752 384.82678096 -180.3125 386.1875 C-180.35439453 386.86103516 -180.39628906 387.53457031 -180.43945312 388.22851562 C-180.53534515 392.16008849 -180.12801128 393.83338907 -177.70703125 396.984375 C-175.07775869 399.35117632 -175.07775869 399.35117632 -171.375 399.0625 C-167.5754669 397.86635069 -166.84369519 397.42716914 -165 394 C-164.78673315 391.3270555 -164.71454369 388.9073788 -164.8125 386.25 C-164.82603516 385.55261719 -164.83957031 384.85523438 -164.85351562 384.13671875 C-164.8887055 382.42414459 -164.94250845 380.71197059 -165 379 C-164.34257812 378.98582031 -163.68515625 378.97164062 -163.0078125 378.95703125 C-147.05659202 378.15730881 -132.77953112 372.78441537 -119 365 C-118.00355469 364.44441406 -117.00710938 363.88882813 -115.98046875 363.31640625 C-92.39698496 349.24728931 -76.06075778 325.3417809 -68.625 299.25 C-67.03485035 292.85542385 -66.2450154 286.57866338 -66 280 C-65.04738281 280.03480469 -64.09476563 280.06960938 -63.11328125 280.10546875 C-61.85902344 280.13253906 -60.60476563 280.15960938 -59.3125 280.1875 C-58.07113281 280.22230469 -56.82976562 280.25710938 -55.55078125 280.29296875 C-51.78333068 279.98212299 -49.97205083 279.2772857 -47 277 C-45.57958179 274.15916359 -45.68547728 272.14522722 -46 269 C-47.43970889 266.65656985 -47.43970889 266.65656985 -50 265 C-52.89449949 264.7093876 -55.37949935 264.61813955 -58.25 264.75 C-58.99507812 264.76804687 -59.74015625 264.78609375 -60.5078125 264.8046875 C-62.33909701 264.85164351 -64.16971649 264.92338348 -66 265 C-66.03867187 263.96166016 -66.03867187 263.96166016 -66.078125 262.90234375 C-67.39485686 240.18871917 -77.28168919 219.09027 -92 202 C-92.58265625 201.29617187 -93.1653125 200.59234375 -93.765625 199.8671875 C-96.47973903 196.45754326 -96.47973903 196.45754326 -100 194 C-99.11351539 189.50620959 -96.55929698 186.69052277 -93.6875 183.25 C-89.31087032 177.90005522 -85.05627746 172.48854255 -80.9375 166.9375 C-74.14732639 157.80704006 -67.11594809 148.87846301 -60 140 C-61.39750048 136.84164893 -63.05198234 134.67727175 -65.5 132.25 C-66.1084375 131.63640625 -66.716875 131.0228125 -67.34375 130.390625 C-68.89484277 128.78565912 -68.89484277 128.78565912 -71 129 Z " fill="#824476" transform="translate(428,40)"/>
<path d="M0 0 C3.90628934 1.14052243 7.72311994 2.42182522 11.546875 3.80859375 C22.0544643 7.43394979 31.51737636 6.82641848 41.8125 3 C55.04268863 -1.78301865 65.4450751 -0.90252155 78.5 3.84008789 C91.69536061 8.53338595 103.13126793 5.17105556 116 1 C116.66 0.67 117.32 0.34 118 0 C122.22773846 -0.49786109 125.79863324 -0.67393745 129.5625 1.4375 C132.34160732 6.39156088 131.44584053 11.286555 130.0696106 16.57565308 C128.74515287 20.93802616 127.2643346 25.24681322 125.78515625 29.55859375 C125.24832592 31.15481419 124.71265405 32.75142466 124.17808533 34.34840393 C122.77502915 38.52903387 121.35558944 42.70392039 119.93280029 46.87786865 C118.48421561 51.13828633 117.05281121 55.40446799 115.61914062 59.66992188 C113.52640117 65.88482498 111.42988767 72.09842977 109.31665039 78.30639648 C108.89251358 79.55388168 108.46837677 80.80136688 108.03138733 82.08665466 C107 85 107 85 106 87 C105.41476562 86.89042969 104.82953125 86.78085938 104.2265625 86.66796875 C102.34090641 86.31971695 100.45401573 85.97812861 98.56640625 85.640625 C96.72132098 85.30919676 94.87639926 84.97653889 93.03466797 84.62695312 C67.98897311 79.87660194 43.20542793 79.95674597 18.38671875 86.1953125 C15 87 15 87 12 87 C8.27747866 76.14012295 4.56601774 65.27656265 0.86895752 54.4079895 C-0.9301238 49.12377299 -2.74275084 43.84461019 -4.57347107 38.5712738 C-5.60846706 35.58338341 -6.63256589 32.5918358 -7.65414429 29.59933472 C-8.13023626 28.2128209 -8.61112706 26.82794452 -9.09707642 25.44485474 C-11.63777042 18.20590643 -13.78309631 11.75830472 -13 4 C-10.10288166 -1.16442835 -5.31538388 -0.87736735 0 0 Z " fill="#8B4671" transform="translate(197,32)"/>
<path d="M0 0 C0 11.55 0 23.1 0 35 C-3.96 35.99 -7.92 36.98 -12 38 C-20.79212645 41.28957112 -27.45257851 46.35870866 -34 53 C-34.57492188 53.56460938 -35.14984375 54.12921875 -35.7421875 54.7109375 C-43.5835146 63.03980825 -46.27166574 73.08666295 -49 84 C-60.55 84 -72.1 84 -84 84 C-82.83637825 68.87291725 -82.83637825 68.87291725 -80.3125 61.875 C-80.0441333 61.10784668 -79.7757666 60.34069336 -79.49926758 59.55029297 C-71.09174527 36.23729777 -53.64574554 17.75643619 -31.375 7.125 C-21.1033524 2.7952472 -11.16784923 0 0 0 Z " fill="#A43E55" transform="translate(248,221)"/>
<path d="M0 0 C11.55 0 23.1 0 35 0 C36.65 5.28 38.3 10.56 40 16 C47.68052458 31.07121805 58.13374385 40.69717391 74.296875 46.17578125 C77.5190132 47.15825403 80.76101594 48.07457598 84 49 C84 60.55 84 72.1 84 84 C70.96764273 82.81524025 70.96764273 82.81524025 64.75 80.9375 C64.03328125 80.72270996 63.3165625 80.50791992 62.578125 80.28662109 C51.21752448 76.67893039 41.01564346 70.7870241 32 63 C31.27683594 62.41992188 30.55367187 61.83984375 29.80859375 61.2421875 C13.63581885 47.79768941 3.01885263 27.77458955 0 7 C0 4.69 0 2.38 0 0 Z " fill="#A43E55" transform="translate(164,320)"/>
<path d="M0 0 C11.55 0 23.1 0 35 0 C33.21816252 19.60021223 26.53993121 38.35139846 13 53 C12.11570312 53.97582031 11.23140625 54.95164062 10.3203125 55.95703125 C-4.37564834 71.68533246 -22.91700751 80.23122111 -44 84 C-45.65 84 -47.3 84 -49 84 C-49 72.45 -49 60.9 -49 49 C-46.298125 48.195625 -43.59625 47.39125 -40.8125 46.5625 C-28.75238115 42.69587197 -18.50303943 36.4725801 -11 26 C-10.48050781 25.28714844 -9.96101563 24.57429688 -9.42578125 23.83984375 C-4.28740097 16.08697276 -2.96542935 9.48937392 0 0 Z " fill="#734F8D" transform="translate(312,320)"/>
<path d="M0 0 C1.80859375 1.60546875 1.80859375 1.60546875 3 3 C1.73755365 4.65227538 0.46474765 6.29663951 -0.8125 7.9375 C-1.87404297 9.31228516 -1.87404297 9.31228516 -2.95703125 10.71484375 C-5 13 -5 13 -8 14 C-8.99 13.67 -9.98 13.34 -11 13 C-18.62092504 12.22649513 -25.40174712 12.92525112 -32 17 C-38.21268752 22.37798971 -42.24411987 28.19216156 -43.30859375 36.37109375 C-43.71986933 44.3598104 -41.13724748 50.66840834 -36.875 57.3125 C-31.11293251 62.69878048 -24.41550196 65.71094652 -16.51171875 66.1328125 C-9.21297746 65.74687595 -2.24100367 63.17415413 3 58 C8.17286776 51.46512717 10.72396393 44.39798161 10 36 C9.34729139 33.69164027 8.59343855 31.45780173 7.75390625 29.2109375 C7.50511719 28.48132813 7.25632812 27.75171875 7 27 C6.7215625 26.19433594 6.443125 25.38867188 6.15625 24.55859375 C5.92829712 20.82586533 7.53578409 19.45871066 9.9375 16.6875 C10.68902344 15.80449219 11.44054687 14.92148437 12.21484375 14.01171875 C12.80394531 13.34785156 13.39304687 12.68398438 14 12 C19.17379225 13.89257768 20.44001911 17.9825659 22.66796875 22.71484375 C27.29927092 34.13691157 26.84374459 45.99685471 22.29296875 57.3984375 C17.08053906 67.88628697 8.02611938 76.0747015 -3 80 C-16.09461298 83.03622345 -27.31051042 82.2531218 -39.17578125 75.81640625 C-49.11607901 69.42326869 -55.03005415 60.19497294 -58.375 48.9375 C-60.42931118 35.99533956 -58.43436573 24.36155164 -50.9453125 13.47265625 C-38.86325518 -1.88465757 -18.20209793 -7.58680926 0 0 Z " fill="#8D4670" transform="translate(272,273)"/>
<path d="M0 0 C11.72685489 5.059152 19.12432922 21.0225141 23.90625 32.12109375 C27.48942462 41.55252123 29.07720455 49.84925 30 60 C18.45 60 6.9 60 -5 60 C-6.65 54.72 -8.3 49.44 -10 44 C-13.30650126 37.79305904 -16.54894858 32.40554385 -21 27 C-14.19726981 17.8260982 -7.3428885 8.75212973 0 0 Z " fill="#6A5296" transform="translate(317,245)"/>
<path d="M0 0 C14.74018144 0 29.52543772 5.20050559 42 13 C41.51921253 17.73060533 39.60260007 20.04334714 36.5 23.5625 C35.59378816 24.60845941 34.69021143 25.65670673 33.7890625 26.70703125 C33.32790039 27.24408691 32.86673828 27.78114258 32.39160156 28.33447266 C28.72270669 32.72556051 25.3845106 37.38921744 22 42 C17.18028526 40.41708927 12.43149645 38.6870164 7.68359375 36.90234375 C4.65718978 35.82169032 4.65718978 35.82169032 0 35 C0 23.45 0 11.9 0 0 Z " fill="#7F4A7F" transform="translate(263,221)"/>
<path d="M0 0 C-0.96196332 2.66389844 -1.79382465 4.75417555 -3.625 6.9375 C-5.51935859 9.77903789 -5.42705614 11.65472693 -5 15 C-4 17 -4 17 -2 18 C0.91440699 18.66721536 0.91440699 18.66721536 4 18 C6.9271127 15.53856432 8.88082786 13.17875822 11 10 C11.66 10 12.32 10 13 10 C12.61970897 15.60929268 12.26387681 18.97300524 8 23 C4.27875005 25.27409719 1.11167826 25.21366538 -3.0703125 24.54296875 C-6.81207311 23.49012518 -9.0818424 21.26793192 -11.3125 18.1875 C-12.70791913 13.74753003 -12.39653013 10.08524036 -10.8125 5.75 C-7.82597566 1.21872169 -5.39692305 0 0 0 Z " fill="#8F456D" transform="translate(255,300)"/>
</svg>
