<?xml version="1.0" encoding="UTF-8"?>
<svg version="1.1" xmlns="http://www.w3.org/2000/svg" width="512" height="512">
<path d="M0 0 C0.82435431 -0.00445784 1.64870862 -0.00891569 2.49804336 -0.01350862 C3.85619219 -0.01323207 3.85619219 -0.01323207 5.24177837 -0.01294994 C6.68485073 -0.01846498 6.68485073 -0.01846498 8.15707606 -0.02409142 C11.39516963 -0.0351439 14.63323113 -0.03897474 17.87134075 -0.04278088 C20.18714278 -0.04904426 22.5029438 -0.05569094 24.81874371 -0.0626936 C31.12041735 -0.08011293 37.42208339 -0.09065755 43.72377515 -0.09889913 C47.65847516 -0.10404647 51.59317279 -0.11012227 55.52787113 -0.11641026 C66.42163645 -0.13327965 77.31539885 -0.1479153 88.20917511 -0.155159 C91.03569127 -0.15706888 93.86220743 -0.15898922 96.68872356 -0.16094494 C97.39123828 -0.16142868 98.093753 -0.16191242 98.81755605 -0.16241082 C110.20091531 -0.1707133 121.58416956 -0.19605473 132.96748296 -0.22852562 C144.65419918 -0.26159028 156.34085658 -0.27927432 168.02761954 -0.28280324 C174.58948131 -0.2851574 181.15117704 -0.29416579 187.71299458 -0.31926441 C193.88454772 -0.34248897 200.05582485 -0.34680087 206.22741032 -0.33650303 C208.49377007 -0.33600622 210.76014315 -0.34236913 213.0264616 -0.35605907 C216.11834256 -0.37369249 219.20922373 -0.36671353 222.30110455 -0.35352612 C223.19984494 -0.36449536 224.09858533 -0.37546461 225.02456027 -0.38676625 C233.54902671 -0.29886731 238.00769683 3.87472745 243.84375286 9.75726795 C244.39736996 10.30738041 244.95098705 10.85749287 245.52138042 11.4242754 C247.3347193 13.22887112 249.14071388 15.04061283 250.94629192 16.85297108 C252.21058732 18.11591808 253.47517939 19.37856816 254.74005413 20.64093494 C257.38253859 23.28047852 260.02139097 25.92358629 262.6577177 28.56927967 C266.03590494 31.95888417 269.42302331 35.33939929 272.81289577 38.71731281 C275.4227322 41.31992266 278.02778696 43.92727662 280.63141918 46.5360918 C281.87868009 47.78468578 283.12742538 49.0317988 284.37768078 50.27739429 C286.12256022 52.01719293 287.86089736 53.763277 289.59765911 55.5111742 C290.11403439 56.02350101 290.63040966 56.53582783 291.16243267 57.0636797 C294.61328172 60.55561421 296.69877483 63.11679839 297.33691692 68.00922108 C296.50767339 74.91958386 290.68763704 79.69275888 285.96457195 84.37880421 C284.90800559 85.43899219 284.90800559 85.43899219 283.83009446 86.52059811 C281.47495395 88.88136239 279.11274967 91.23492666 276.75049114 93.58856678 C275.05816408 95.28196702 273.36627012 96.97580018 271.67477703 98.67003345 C267.5609319 102.78822032 263.4424744 106.90175099 259.32182823 111.01313195 C254.52412995 115.80043082 249.73167869 120.59296806 244.93942083 125.38571193 C236.39162184 133.93401107 227.83900715 142.47747578 219.28369427 151.01825428 C210.97862723 159.30921936 202.67708535 167.60369312 194.37939739 175.90204334 C193.86781585 176.41366484 193.35623431 176.92528633 192.8291503 177.45241151 C192.31845866 177.9631435 191.80776702 178.4738755 191.28159988 179.00008422 C181.83542291 188.44695044 172.3859628 197.89052651 162.93496313 207.33256776 C159.59082603 210.67368572 156.24766877 214.01578224 152.90481472 217.35818386 C148.41090192 221.85109518 143.91445826 226.34145823 139.41600704 230.8298254 C137.76149059 232.48141125 136.10782911 234.13385409 134.45506573 235.78719425 C132.20744469 238.03530299 129.95679303 240.28033167 127.70529461 242.52455616 C127.04460566 243.18679371 126.38391672 243.84903125 125.7032069 244.53133661 C124.80221789 245.42748895 124.80221789 245.42748895 123.88302708 246.34174538 C123.36345963 246.86060839 122.84389219 247.37947141 122.30858028 247.91405755 C119.52502542 250.4361371 116.87838531 250.35158804 113.22754192 250.56000233 C106.29862887 249.25784453 101.04683898 242.48272658 96.3295927 237.7130785 C95.48325268 236.86542423 94.63691265 236.01776997 93.76492596 235.14442921 C91.45546293 232.82960421 89.15046774 230.51043762 86.84724569 228.18940616 C84.42591563 225.75176582 81.99844347 223.32025852 79.57150555 220.88820362 C74.97334456 216.27868229 70.37988083 211.66451291 65.7884692 207.04826957 C57.57961627 198.79508371 49.36524113 190.5474039 41.14550292 182.30505925 C38.73571529 179.88828251 36.32721781 177.47024649 33.92160702 175.04931164 C31.23426131 172.34521046 28.5439071 169.64413384 25.8530302 166.94354725 C24.67601543 165.75642643 24.67601543 165.75642643 23.47522259 164.54532337 C19.41894075 160.48076453 15.27147086 156.61276802 10.92161465 152.86555862 C7.47491185 149.82049413 4.2474845 146.55871114 1.00122356 143.30292225 C0.25063671 142.55408772 -0.49995014 141.80525318 -1.27328205 141.03372669 C-3.72733375 138.58403904 -6.17775388 136.13075652 -8.62792683 133.67718983 C-10.34031026 131.96548058 -12.05284206 130.25391975 -13.76551533 128.5425005 C-17.34017602 124.96930902 -20.91303413 121.39432752 -24.48461628 117.81805897 C-29.07022209 113.22673035 -33.66033751 108.63994043 -38.25178909 104.05445862 C-41.78191723 100.52793498 -45.30967139 96.99904432 -48.83669949 93.46942043 C-50.52931532 91.77613637 -52.22267748 90.08359801 -53.91678905 88.39181042 C-56.27466565 86.03646128 -58.62933363 83.67795157 -60.98315144 81.31854725 C-62.03891628 80.26581875 -62.03891628 80.26581875 -63.11600971 79.19182301 C-63.75371296 78.55129993 -64.39141621 77.91077686 -65.04844379 77.250844 C-65.60495593 76.69395484 -66.16146807 76.13706568 -66.73484421 75.56330109 C-69.26883524 72.78462711 -69.57081744 70.0295211 -69.49078083 66.31233692 C-68.94449963 63.68395246 -68.10574434 62.62849132 -66.29491901 60.65936756 C-65.65550373 59.96358601 -65.01608845 59.26780445 -64.35729694 58.55093861 C-59.43977456 53.42667529 -54.44888769 48.38019082 -49.42870808 43.35687733 C-48.21271425 42.13766486 -46.99679346 40.91837955 -45.78094196 39.69902515 C-43.24781596 37.15994708 -40.71266814 34.62290778 -38.17626667 32.08710194 C-34.92401594 28.83495353 -31.67874102 25.57593674 -28.43512058 22.31518364 C-25.93357371 19.80254266 -23.42751989 17.29443502 -20.92015553 14.78760052 C-19.72083405 13.58709847 -18.52313499 12.38497334 -17.32709217 11.1812048 C-15.66155584 9.50590518 -13.98984497 7.83701943 -12.31640339 6.16962147 C-11.82389591 5.67149448 -11.33138844 5.1733675 -10.82395649 4.66014576 C-7.332609 1.20085793 -4.87322858 0.01223279 0 0 Z M24.96191692 21.13422108 C28.88336002 25.70923803 32.75411855 30.06672462 37.01660442 34.28656483 C37.83622158 35.10405956 37.83622158 35.10405956 38.67239666 35.93806934 C40.3915375 37.65168226 42.11414896 39.36175552 43.83691692 41.07172108 C45.01423331 42.24401312 46.19131866 43.41653722 47.36816692 44.5892992 C50.23009182 47.4402909 53.09513149 50.28811723 55.96191692 53.13422108 C62.43435358 47.84542305 68.2783809 41.97003751 74.17114544 36.05536366 C75.91601411 34.30507231 77.66624475 32.56026782 79.41699505 30.8158617 C80.52473826 29.70745879 81.63217182 28.59874632 82.73926067 27.48968983 C83.52658833 26.70539852 83.52658833 26.70539852 84.32982159 25.90526295 C86.84375944 23.86618134 86.84375944 23.86618134 87.96191692 21.13422108 C67.17191692 21.13422108 46.38191692 21.13422108 24.96191692 21.13422108 Z M139.96191692 21.13422108 C143.88336002 25.70923803 147.75411855 30.06672462 152.01660442 34.28656483 C152.83622158 35.10405956 152.83622158 35.10405956 153.67239666 35.93806934 C155.3915375 37.65168226 157.11414896 39.36175552 158.83691692 41.07172108 C160.01423331 42.24401312 161.19131866 43.41653722 162.36816692 44.5892992 C165.23009182 47.4402909 168.09513149 50.28811723 170.96191692 53.13422108 C177.43435358 47.84542305 183.2783809 41.97003751 189.17114544 36.05536366 C190.91601411 34.30507231 192.66624475 32.56026782 194.41699505 30.8158617 C195.52473826 29.70745879 196.63217182 28.59874632 197.73926067 27.48968983 C198.52658833 26.70539852 198.52658833 26.70539852 199.32982159 25.90526295 C201.84375944 23.86618134 201.84375944 23.86618134 202.96191692 21.13422108 C182.17191692 21.13422108 161.38191692 21.13422108 139.96191692 21.13422108 Z M-3.45547199 27.30437183 C-4.00174244 27.8520673 -4.54801289 28.39976276 -5.11083698 28.96405506 C-5.73132923 29.58147068 -6.35182148 30.1988863 -6.99111652 30.83501148 C-7.65888111 31.50996159 -8.3266457 32.18491169 -9.01464558 32.88031483 C-9.69989307 33.56602055 -10.38514057 34.25172626 -11.09115314 34.95821095 C-12.54100216 36.41108577 -13.98841522 37.86639486 -15.43359089 39.32391834 C-17.65541246 41.56398746 -19.88512296 43.79596023 -22.11620808 46.0267992 C-23.52032688 47.43583325 -24.92398842 48.84532314 -26.32714558 50.25531483 C-26.99895863 50.9282407 -27.67077168 51.60116657 -28.3629427 52.29448414 C-28.97713062 52.91505192 -29.59131855 53.5356197 -30.22411823 54.17499256 C-30.76879749 54.72348362 -31.31347675 55.27197468 -31.87466145 55.83708668 C-33.14936569 56.9678863 -33.14936569 56.9678863 -33.03808308 58.13422108 C-11.91808308 58.13422108 9.20191692 58.13422108 30.96191692 58.13422108 C27.05909929 53.58093384 23.19712996 49.21067971 18.97754192 44.98187733 C18.43587383 44.43688084 17.89420574 43.89188435 17.33612347 43.33037281 C16.20471379 42.19394922 15.07199161 41.05883089 13.93799114 39.92499256 C12.19697435 38.18175948 10.46414756 36.43063888 8.73144817 34.67914295 C7.62646795 33.57123363 6.52101644 32.4637941 5.41504192 31.35687733 C4.63849255 30.56954967 4.63849255 30.56954967 3.8462553 29.76631641 C0.58110388 25.97566377 0.58110388 25.97566377 -3.45547199 27.30437183 Z M111.54452801 27.30437183 C110.99825756 27.8520673 110.45198711 28.39976276 109.88916302 28.96405506 C109.26867077 29.58147068 108.64817852 30.1988863 108.00888348 30.83501148 C107.34111889 31.50996159 106.6733543 32.18491169 105.98535442 32.88031483 C105.30010693 33.56602055 104.61485943 34.25172626 103.90884686 34.95821095 C102.45899784 36.41108577 101.01158478 37.86639486 99.56640911 39.32391834 C97.34458754 41.56398746 95.11487704 43.79596023 92.88379192 46.0267992 C91.47967312 47.43583325 90.07601158 48.84532314 88.67285442 50.25531483 C88.00104137 50.9282407 87.32922832 51.60116657 86.6370573 52.29448414 C86.02286938 52.91505192 85.40868145 53.5356197 84.77588177 54.17499256 C84.23120251 54.72348362 83.68652325 55.27197468 83.12533855 55.83708668 C81.85063431 56.9678863 81.85063431 56.9678863 81.96191692 58.13422108 C103.08191692 58.13422108 124.20191692 58.13422108 145.96191692 58.13422108 C142.05909929 53.58093384 138.19712996 49.21067971 133.97754192 44.98187733 C133.43587383 44.43688084 132.89420574 43.89188435 132.33612347 43.33037281 C131.20471379 42.19394922 130.07199161 41.05883089 128.93799114 39.92499256 C127.19697435 38.18175948 125.46414756 36.43063888 123.73144817 34.67914295 C122.62646795 33.57123363 121.52101644 32.4637941 120.41504192 31.35687733 C119.63849255 30.56954967 119.63849255 30.56954967 118.8462553 29.76631641 C115.58110388 25.97566377 115.58110388 25.97566377 111.54452801 27.30437183 Z M226.54452801 27.30437183 C225.99825756 27.8520673 225.45198711 28.39976276 224.88916302 28.96405506 C224.26867077 29.58147068 223.64817852 30.1988863 223.00888348 30.83501148 C222.34111889 31.50996159 221.6733543 32.18491169 220.98535442 32.88031483 C220.30010693 33.56602055 219.61485943 34.25172626 218.90884686 34.95821095 C217.45899784 36.41108577 216.01158478 37.86639486 214.56640911 39.32391834 C212.34458754 41.56398746 210.11487704 43.79596023 207.88379192 46.0267992 C206.47967312 47.43583325 205.07601158 48.84532314 203.67285442 50.25531483 C203.00104137 50.9282407 202.32922832 51.60116657 201.6370573 52.29448414 C201.02286938 52.91505192 200.40868145 53.5356197 199.77588177 54.17499256 C199.23120251 54.72348362 198.68652325 55.27197468 198.12533855 55.83708668 C196.85063431 56.9678863 196.85063431 56.9678863 196.96191692 58.13422108 C218.08191692 58.13422108 239.20191692 58.13422108 260.96191692 58.13422108 C257.05909929 53.58093384 253.19712996 49.21067971 248.97754192 44.98187733 C248.43587383 44.43688084 247.89420574 43.89188435 247.33612347 43.33037281 C246.20471379 42.19394922 245.07199161 41.05883089 243.93799114 39.92499256 C242.19697435 38.18175948 240.46414756 36.43063888 238.73144817 34.67914295 C237.62646795 33.57123363 236.52101644 32.4637941 235.41504192 31.35687733 C234.63849255 30.56954967 234.63849255 30.56954967 233.8462553 29.76631641 C230.58110388 25.97566377 230.58110388 25.97566377 226.54452801 27.30437183 Z M-32.03808308 79.13422108 C-26.96325498 85.05900353 -26.96325498 85.05900353 -21.62841511 90.67328358 C-20.81381824 91.4910326 -19.99922138 92.30878162 -19.15993977 93.15131092 C-18.29730518 94.01192127 -17.4346706 94.87253162 -16.54589558 95.75922108 C-15.64112476 96.66494862 -14.73635395 97.57067616 -13.80416584 98.50384998 C-11.89791676 100.41156436 -9.98989456 102.31748202 -8.08056355 104.2221117 C-5.65446687 106.64251999 -3.23287814 109.0673807 -0.81262112 111.49362659 C1.52384124 113.83460848 3.86414697 116.17173273 6.20410442 118.50922108 C7.06269054 119.36983143 7.92127666 120.23044178 8.80588055 121.11713123 C12.33761971 124.63530895 15.86231001 128.10251709 19.66162395 131.33173084 C26.29642984 137.04323958 32.35034059 143.40066413 38.52441692 149.59906483 C39.92523908 151.00175499 41.32628435 152.40422236 42.72754192 153.80647755 C46.39246579 157.47519647 50.054375 161.14690986 53.71564007 164.81927967 C57.46126199 168.57518085 61.20976106 172.32820819 64.95801067 176.0814867 C72.29544645 183.42960661 79.62969697 190.78089687 86.96191692 198.13422108 C88.12047845 194.6585365 87.77881587 193.83953507 86.64627361 190.45903492 C86.32935558 189.49858768 86.01243755 188.53814045 85.68591595 187.54858875 C85.32856365 186.49653248 84.97121136 185.4444762 84.6030302 184.36053944 C84.23414684 183.2514069 83.86526348 182.14227436 83.48520184 180.99953175 C82.47098119 177.95610788 81.44878913 174.91550445 80.42293692 171.87598586 C79.3521115 168.69727262 78.29123056 165.51524395 77.22922039 162.33357716 C75.4443609 156.99096349 73.6529566 151.65058294 71.85693645 146.31171131 C69.32274923 138.7785091 66.80056325 131.24132959 64.28067708 123.70333374 C62.32522872 117.85528484 60.36643995 112.00835419 58.40722942 106.16156483 C58.19679453 105.53343159 57.98635964 104.90529836 57.76954794 104.25813079 C56.37541097 100.09740907 54.97824374 95.9377144 53.5795927 91.77850819 C53.22628887 90.72442768 52.87298504 89.67034718 52.50897503 88.58432484 C52.18641735 87.62669743 51.86385967 86.66907001 51.53152752 85.68242359 C51.25092543 84.84748843 50.97032333 84.01255327 50.68121815 83.15231705 C49.99648409 81.10255298 49.99648409 81.10255298 48.96191692 79.13422108 C22.23191692 79.13422108 -4.49808308 79.13422108 -32.03808308 79.13422108 Z M70.96191692 79.13422108 C80.7387458 109.31519837 80.7387458 109.31519837 90.69629192 139.43500233 C91.35188338 141.39989771 92.0073362 143.36483935 92.66266155 145.32982349 C94.33800113 150.35213303 96.0151434 155.37383849 97.69275188 160.39539051 C99.42425676 165.57943191 101.15393209 170.76408369 102.88379192 175.9486742 C106.24144379 186.01109889 109.60101303 196.07288216 112.96191692 206.13422108 C115.14409995 205.31042334 115.14409995 205.31042334 115.84832478 203.0986166 C116.14882929 202.19639055 116.4493338 201.29416451 116.75894451 200.36459827 C117.10667416 199.33261814 117.4544038 198.30063801 117.81267071 197.23738575 C118.18886044 196.09555332 118.56505016 194.95372089 118.95263958 193.77728748 C119.35282803 192.58227116 119.75301647 191.38725483 120.16533184 190.15602589 C121.26507794 186.87107607 122.35536938 183.58305797 123.44379759 180.29434347 C124.58273476 176.85747332 125.72943644 173.42319497 126.87509441 169.98856068 C128.79853427 164.21818747 130.71604268 158.44586978 132.62988567 152.67230701 C134.84376432 145.9937967 137.06605103 139.31813194 139.2930876 132.64399874 C141.43312468 126.23018999 143.56804206 119.81468939 145.70033169 113.39830112 C146.6087026 110.66500565 147.51871632 107.9322653 148.43001461 105.1999445 C149.70199924 101.38503163 150.9664074 97.56764996 152.22998333 93.74994373 C152.61022152 92.61215977 152.99045971 91.4743758 153.38222027 90.30211353 C153.89535526 88.74568386 153.89535526 88.74568386 154.41885662 87.15781116 C154.86848231 85.80334102 154.86848231 85.80334102 155.32719135 84.42150784 C156.09561529 82.04804819 156.09561529 82.04804819 155.96191692 79.13422108 C127.91191692 79.13422108 99.86191692 79.13422108 70.96191692 79.13422108 Z M178.96191692 79.13422108 C175.8828993 86.73807383 175.8828993 86.73807383 173.10747051 94.41667652 C172.79761715 95.33481632 172.48776379 96.25295612 172.16852093 97.19891834 C171.8447044 98.16813221 171.52088787 99.13734608 171.18725872 100.13593006 C170.83393978 101.18595707 170.48062084 102.23598408 170.11659527 103.31783009 C168.96147585 106.75422789 167.81090119 110.19212226 166.66113567 113.63031483 C165.85732837 116.03022235 165.05352079 118.43012978 164.24971294 120.83003712 C162.785842 125.20338383 161.32366003 129.57728831 159.86344212 133.95185608 C157.71625131 140.38442631 155.56118606 146.8142876 153.39940423 153.24196857 C151.52177688 158.82649413 149.65400518 164.41428377 147.78983784 170.00331783 C146.99656728 172.37706311 146.2002863 174.7498045 145.40097904 177.12152386 C144.28872797 180.42435392 143.18777015 183.73073919 142.08960247 187.03827381 C141.75566479 188.0216573 141.4217271 189.00504078 141.0776701 190.01822376 C140.78191586 190.91662479 140.48616161 191.81502583 140.18144512 192.74065113 C139.78964077 193.91166449 139.78964077 193.91166449 139.38992119 195.10633469 C138.74384312 197.32220589 138.74384312 197.32220589 139.96191692 200.13422108 C155.61100021 184.50846266 171.25724648 168.87986866 186.90008831 153.24786186 C194.16283294 145.99028106 201.42651514 138.73364322 208.69238567 131.47919178 C215.02277515 125.15874648 221.35142516 118.83656563 227.6779623 112.51226419 C231.03015957 109.16137448 234.38324183 105.81138094 237.73840618 102.46346188 C240.89233585 99.31628822 244.04394547 96.16681035 247.19374371 93.01550198 C248.35390736 91.85561484 249.51493681 90.69659299 250.67686749 89.53847599 C252.25562973 87.96464445 253.8313284 86.3878102 255.40625286 84.81013966 C256.73363476 83.48414045 256.73363476 83.48414045 258.08783245 82.13135338 C260.07596452 80.46914307 260.07596452 80.46914307 259.96191692 79.13422108 C233.23191692 79.13422108 206.50191692 79.13422108 178.96191692 79.13422108 Z " fill="#2F76FA" transform="translate(190.03808307647705,92.86577892303467)"/>
<path d="M0 0 C1.3600264 -0.00006042 1.3600264 -0.00006042 2.74752808 -0.00012207 C4.65190618 0.00520882 6.55628556 0.02268661 8.46044922 0.05175781 C11.36624657 0.09373641 14.26973058 0.09280876 17.17578125 0.0859375 C19.03387018 0.0964276 20.89194724 0.10936473 22.75 0.125 C24.04395187 0.12530212 24.04395187 0.12530212 25.36404419 0.12561035 C30.38765017 0.22373857 33.89523552 0.81156903 38.2421875 3.59375 C43.56043334 9.15373429 45.35688965 13.00255318 45.2421875 20.59375 C46.00660156 20.26165527 46.77101563 19.92956055 47.55859375 19.58740234 C105.34358659 -5.47188381 105.34358659 -5.47188381 130.5703125 2.51171875 C143.17625622 7.61675736 154.64421656 14.87268888 166.28613281 21.83349609 C171.17056859 24.74205093 176.0804122 27.60667845 180.9921875 30.46875 C181.97888428 31.04407471 182.96558105 31.61939941 183.98217773 32.2121582 C192.64009241 37.25452659 201.32101781 42.25673736 210.00268555 47.25805664 C217.4526648 51.55289623 224.88279635 55.87873989 232.28125 60.26171875 C235.0746733 61.9144126 237.8837602 63.53650769 240.703125 65.14453125 C256.85067868 74.39445767 269.8552866 83.78476625 274.9921875 102.46875 C276.40765639 107.87463651 276.36574815 113.04862255 276.2421875 118.59375 C277.16660645 118.34020752 278.09102539 118.08666504 279.04345703 117.82543945 C304.77317375 110.77298994 330.52378167 103.79731398 356.28118896 96.84677124 C359.84001344 95.88634037 363.3984627 94.92453707 366.956604 93.96157837 C371.21478958 92.80925926 375.47373866 91.65980526 379.73326874 90.51246643 C381.32334618 90.08367459 382.91316004 89.65390397 384.50269318 89.22309875 C386.7007855 88.6275618 388.89982109 88.03563902 391.09912109 87.44458008 C392.33874603 87.1099324 393.57837097 86.77528473 394.8555603 86.43049622 C408.49621526 83.06025032 421.8308612 83.7236102 434.0546875 91.1015625 C443.9579703 97.85701612 451.16480167 106.55340106 453.87817383 118.47412109 C456.07975976 131.29381867 454.34447772 143.07667557 447.6171875 154.21875 C437.20192307 168.74804388 422.51799323 172.79824809 406.015625 177.12109375 C404.41870966 177.54618524 402.82199998 177.97204994 401.22547913 178.39862061 C397.8102687 179.30945276 394.39374148 180.21509303 390.9760437 181.11654663 C385.53529595 182.55164133 380.09763283 183.99818526 374.66040039 185.4465332 C368.00816177 187.21779089 361.35523452 188.98641582 354.70140934 190.75170422 C342.47134938 193.99681965 330.24767313 197.26532004 318.02734375 200.546875 C317.12530212 200.78909349 316.2232605 201.03131199 315.29388428 201.28087044 C310.8172733 202.48306796 306.34076752 203.68565654 301.86431885 204.88845825 C296.85889449 206.23328931 291.85310459 207.57675492 286.84716797 208.91967773 C286.05201908 209.13299838 285.25687019 209.34631903 284.43762589 209.56610394 C280.50780274 210.62033105 276.57791405 211.67431328 272.64794922 212.72801208 C265.02946325 214.77096279 257.41172059 216.81661001 249.79568768 218.86868954 C246.00145019 219.89085732 242.2068936 220.91183755 238.41230965 221.93271828 C236.58800864 222.42387309 234.76386199 222.91560166 232.93987846 223.40793419 C230.40960638 224.09086791 227.87881233 224.77183459 225.34790039 225.45239258 C224.59902369 225.65507311 223.85014698 225.85775364 223.07857704 226.066576 C191.71634876 234.48199125 167.01758878 222.33933076 140.05883789 207.42138672 C132.14735471 203.05014797 124.14892387 198.86325267 116.1171875 194.71875 C115.51189209 194.405961 114.90659668 194.093172 114.28295898 193.77090454 C84.63424733 178.3616609 84.63424733 178.3616609 51.9921875 180.59375 C50.06613943 181.23280742 48.14485621 181.88812452 46.2421875 182.59375 C46.14421875 183.39039063 46.04625 184.18703125 45.9453125 185.0078125 C44.84328279 192.81702304 43.72960023 197.96039753 37.1796875 202.90625 C32.25839834 205.73337356 28.01657214 205.78301849 22.48046875 205.83203125 C21.61584518 205.840103 20.75122162 205.84817474 19.86039734 205.85649109 C18.02877805 205.87032082 16.19713311 205.88104795 14.36547852 205.88891602 C12.50049237 205.90041728 10.63553866 205.92083966 8.77075195 205.95043945 C6.06959767 205.99331492 3.36942199 206.0093143 0.66796875 206.01953125 C-0.15628098 206.03703934 -0.9805307 206.05454742 -1.82975769 206.07258606 C-8.27857511 206.04872087 -13.4381218 204.78440228 -18.19298744 200.21436119 C-23.45391943 193.16019015 -22.45053776 184.55220928 -22.38891602 176.18139648 C-22.39405882 174.40833827 -22.40134281 172.63528517 -22.41059875 170.86224365 C-22.42907369 166.06262012 -22.41619944 161.26355389 -22.39650846 156.46395373 C-22.38009091 151.43438266 -22.38893905 146.40484601 -22.39402771 141.3752594 C-22.39854477 132.93115361 -22.38270176 124.48726963 -22.35473633 116.04321289 C-22.32267585 106.28759005 -22.32270548 96.53236695 -22.3399511 86.7767157 C-22.35582609 77.38153485 -22.34907702 67.98650023 -22.33201408 58.59132576 C-22.32515042 54.59744424 -22.32616898 50.60368018 -22.33355904 46.60980034 C-22.34123192 41.90562916 -22.329063 37.20191184 -22.30171013 32.49781799 C-22.29483613 30.77371632 -22.29471776 29.04957218 -22.30192566 27.32547188 C-22.31064605 24.96753124 -22.29462256 22.6109831 -22.2724762 20.25315857 C-22.26966928 18.93524543 -22.26686235 17.61733229 -22.26397038 16.25948238 C-21.56539332 11.20019818 -19.67096184 7.46314924 -15.9602356 3.83728027 C-10.59367449 0.50554507 -6.25361252 -0.11941682 0 0 Z M-0.7578125 21.59375 C-0.7578125 75.38375 -0.7578125 129.17375 -0.7578125 184.59375 C7.4921875 184.59375 15.7421875 184.59375 24.2421875 184.59375 C24.2421875 130.80375 24.2421875 77.01375 24.2421875 21.59375 C15.9921875 21.59375 7.7421875 21.59375 -0.7578125 21.59375 Z M82.9296875 27.59375 C81.84107422 28.02558594 80.75246094 28.45742188 79.63085938 28.90234375 C68.05288562 33.54405271 56.68833682 38.61716334 45.2421875 43.59375 C45.2421875 81.87375 45.2421875 120.15375 45.2421875 159.59375 C51.6771875 158.60375 51.6771875 158.60375 58.2421875 157.59375 C87.67445709 155.94370099 108.17123658 165.77400536 133.52709961 179.81689453 C141.40357139 184.17349578 149.36893159 188.34165917 157.3671875 192.46875 C157.97266418 192.78162964 158.57814087 193.09450928 159.20196533 193.41687012 C162.10421733 194.91587127 165.00952275 196.40851095 167.91894531 197.89355469 C170.11695096 199.01807066 172.30916568 200.15398562 174.49511719 201.30175781 C175.52282227 201.83381836 176.55052734 202.36587891 177.609375 202.9140625 C178.5051123 203.38344238 179.40084961 203.85282227 180.32373047 204.33642578 C196.0421718 211.10821538 212.53673089 207.40845597 228.29296875 202.9140625 C230.11283605 202.41387829 231.93335814 201.91607139 233.75447083 201.42044067 C237.6086773 200.36875577 241.45944071 199.30557116 245.3081665 198.23400879 C251.22520056 196.59149257 257.15575187 195.00280731 263.09130859 193.42871094 C264.08287177 193.16569246 265.07443495 192.90267399 266.09604549 192.63168526 C268.11804913 192.09550706 270.14008268 191.55944165 272.16214561 191.02348709 C277.3295702 189.65156285 282.49426804 188.26946797 287.65893555 186.88720703 C288.69951394 186.6087689 289.74009233 186.33033077 290.81220341 186.04345512 C298.46210993 183.99611907 306.11157192 181.94712306 313.76098633 179.89794922 C314.86514483 179.60216288 315.96930334 179.30637653 317.1069212 179.00162697 C322.62070564 177.5245135 328.13440894 176.04709821 333.647995 174.56924438 C345.01907589 171.52220394 356.3933028 168.48763329 367.77372742 165.47567749 C372.97957088 164.09780103 378.18359021 162.71310633 383.3869524 161.32589149 C386.7016715 160.44264165 390.01728369 159.5631707 393.33554077 158.69329834 C396.90476925 157.75585726 400.470262 156.80533034 404.03515625 155.8515625 C405.04078613 155.59127258 406.04641602 155.33098267 407.08251953 155.06280518 C416.57153248 152.49586792 425.80172128 149.26908803 431.2421875 140.59375 C434.32695697 134.23208009 434.54352294 126.679338 432.40234375 119.95703125 C429.0468137 113.30246155 423.93285525 109.28530605 417.2421875 106.21875 C409.64728208 104.63647804 403.21076592 106.09741033 395.875 108.1015625 C394.84317596 108.37462219 393.81135193 108.64768188 392.7482605 108.92901611 C389.28501581 109.84846724 385.82598512 110.7827176 382.3671875 111.71875 C379.26402326 112.55290762 376.16058935 113.38605295 373.0570488 114.21880913 C372.40922062 114.39266199 371.76139244 114.56651485 371.09393311 114.74563599 C370.43448448 114.92260136 369.77503586 115.09956673 369.09560394 115.28189468 C367.028039 115.83738357 364.96093992 116.39458355 362.89385986 116.95187378 C352.99648949 119.61532313 343.07824275 122.19044351 333.14938354 124.73379517 C326.61914645 126.40740037 320.09491074 128.1038772 313.5720005 129.80579185 C308.95828091 131.00833734 304.34227509 132.1997705 299.71929932 133.36627197 C295.31601136 134.47784493 290.92146324 135.61917804 286.53146744 136.78209686 C284.90520692 137.20730666 283.27611498 137.62185872 281.64416122 138.02466583 C272.88284742 140.19376889 266.12379997 142.26932092 260.1081543 149.47695923 C253.23473252 157.27430901 241.43707915 161.09755058 231.296875 161.796875 C213.59540147 162.05783038 200.42727067 154.08277002 185.6171875 145.15625 C183.25812591 143.74208147 180.89700152 142.33138874 178.53515625 140.921875 C177.93739883 140.56482986 177.33964142 140.20778473 176.72377014 139.83992004 C172.4801754 137.3122215 168.20868124 134.83738091 163.91796875 132.390625 C163.32721558 132.05316757 162.7364624 131.71571014 162.12780762 131.36802673 C159.30403948 129.75617216 156.4767479 128.15103816 153.64404297 126.55493164 C139.8425422 118.68853604 139.8425422 118.68853604 138.515625 114.05859375 C138.78550605 107.34270757 138.78550605 107.34270757 140.8046875 104.03125 C144.08232537 102.09828407 146.47139306 101.12326556 150.2421875 101.59375 C160.10320931 105.07218032 169.27679346 111.67073408 178.21484375 117.00390625 C184.43315229 120.71405815 190.6769768 124.37943211 196.9296875 128.03125 C197.89616211 128.59779297 198.86263672 129.16433594 199.85839844 129.74804688 C204.61331507 132.5246166 209.38795723 135.26352266 214.19921875 137.94140625 C215.07167236 138.42746338 215.94412598 138.91352051 216.84301758 139.41430664 C222.54360919 142.21674463 228.64112213 142.51767095 234.76953125 140.9453125 C242.50151525 138.15750933 248.83098354 133.81397053 252.6796875 126.40625 C255.98473032 119.12922748 256.09590449 112.50017939 253.5546875 104.96875 C249.42960034 94.69841313 242.4619696 90.9009273 233.2421875 85.59375 C232.34773926 85.0766748 231.45329102 84.55959961 230.53173828 84.02685547 C226.26656986 81.56189773 221.99938519 79.10052279 217.7277832 76.64672852 C209.69322392 72.02746599 201.70643906 67.33356374 193.7421875 62.59375 C183.81756516 56.69037874 173.85135731 50.8660294 163.83374023 45.12182617 C158.41948307 42.01516332 153.02529053 38.88105818 147.6640625 35.68359375 C146.59567139 35.04953613 145.52728027 34.41547852 144.42651367 33.76220703 C142.41950041 32.56901748 140.41667538 31.36873932 138.41918945 30.15966797 C119.15182228 18.73831681 103.3736069 19.22979893 82.9296875 27.59375 Z " fill="#41B7EA" transform="translate(39.7578125,282.40625)"/>
<path d="M0 0 C2.87029869 1.79393668 4.49131638 2.98263276 6 6 C6.11714722 8.0358133 6.16977109 10.07545177 6.19287109 12.11450195 C6.21696548 14.04209099 6.21696548 14.04209099 6.24154663 16.00862122 C6.2530335 17.41850118 6.26364214 18.82838852 6.2734375 20.23828125 C6.27876118 20.9473229 6.28408485 21.65636456 6.28956985 22.38689232 C6.31629622 26.14032281 6.33567213 29.89372012 6.35009766 33.6472168 C6.36673919 37.52124395 6.41151255 41.39441931 6.4624691 45.26812458 C6.49615139 48.24931294 6.50767603 51.23029939 6.51332474 54.21166039 C6.52003531 55.63942152 6.53525273 57.06716945 6.55921555 58.49474525 C6.59087951 60.49536747 6.58790125 62.49644653 6.58349609 64.49731445 C6.59562637 66.20368828 6.59562637 66.20368828 6.60800171 67.9445343 C5.81136719 71.94795962 4.08863719 73.4273616 1 76 C-2.49687353 77.74843676 -6.30549777 76.97950326 -10 76 C-12.934209 73.13914622 -14.90928136 70.62516861 -15.14044189 66.48406982 C-15.1472699 65.42294983 -15.1540979 64.36182983 -15.16113281 63.26855469 C-15.17074036 62.06680603 -15.1803479 60.86505737 -15.19024658 59.62689209 C-15.19449646 58.32173645 -15.19874634 57.01658081 -15.203125 55.671875 C-15.20887807 54.32147215 -15.21463578 52.97106932 -15.22039795 51.6206665 C-15.2309097 48.78600687 -15.23675063 45.9513756 -15.24023438 43.11669922 C-15.24570734 39.49410105 -15.26970841 35.87188099 -15.29820633 32.24940109 C-15.31688641 29.45775278 -15.32204123 26.66619435 -15.32357025 23.87448883 C-15.32804995 21.89257959 -15.34667441 19.91071856 -15.36553955 17.92889404 C-15.36253845 16.71453674 -15.35953735 15.50017944 -15.35644531 14.24902344 C-15.36009094 13.18472107 -15.36373657 12.1204187 -15.36749268 11.02386475 C-14.93250255 7.44460622 -13.86977295 5.07032577 -12 2 C-7.98141405 -0.6790573 -4.72358279 -0.69610694 0 0 Z " fill="#2A66FE" transform="translate(308,1)"/>
<path d="M0 0 C3.87571364 3.38094168 4.81615822 4.49217486 5.4453125 9.65234375 C5.28661549 14.96352525 2.76093741 18.64173918 -0.0625 23 C-0.85430664 24.2686792 -0.85430664 24.2686792 -1.66210938 25.56298828 C-2.81027364 27.39865416 -3.96637114 29.2293763 -5.12939453 31.05566406 C-7.10635395 34.16740128 -9.05376278 37.29622922 -10.99609375 40.4296875 C-26.19286239 64.9122464 -26.19286239 64.9122464 -30 66 C-34.46752837 66.57912405 -36.46629093 66.31627204 -40.375 64 C-43.00602727 60.99311169 -44.02514858 59.0950827 -44.23510742 55.08398438 C-43.44221424 48.05580557 -37.73493503 41.15458335 -34.0625 35.3125 C-32.90846175 33.46769334 -31.75482844 31.62263331 -30.6015625 29.77734375 C-30.01020508 28.8322998 -29.41884766 27.88725586 -28.80957031 26.91357422 C-26.9854145 23.976516 -25.1883698 21.02442789 -23.3984375 18.06640625 C-22.81827881 17.1127417 -22.23812012 16.15907715 -21.64038086 15.17651367 C-20.52590405 13.34301957 -19.41710598 11.50605864 -18.31469727 9.6652832 C-17.80737061 8.83472412 -17.30004395 8.00416504 -16.77734375 7.1484375 C-16.33640381 6.41802246 -15.89546387 5.68760742 -15.44116211 4.93505859 C-11.28275479 -0.64846442 -6.62495251 -1.71334979 0 0 Z " fill="#2A65FE" transform="translate(399,22)"/>
<path d="M0 0 C2.93751362 2.61368762 4.98732267 5.31798881 6.99609375 8.68359375 C7.5487793 9.60140625 8.10146484 10.51921875 8.67089844 11.46484375 C9.25387695 12.44582031 9.83685547 13.42679688 10.4375 14.4375 C11.67992807 16.50975139 12.92344366 18.58135109 14.16796875 20.65234375 C14.80009277 21.70534668 15.4322168 22.75834961 16.08349609 23.84326172 C17.93732378 26.89676388 19.82780494 29.92308575 21.73828125 32.94140625 C22.32875244 33.87734619 22.91922363 34.81328613 23.52758789 35.77758789 C24.64921582 37.55041185 25.77700988 39.31935442 26.91186523 41.08374023 C29.79338783 45.65957803 32.0218558 49.65015011 33 55 C31.89474997 58.90088244 30.83015854 61.21867431 27.875 64 C23.59594562 65.48836674 20.28797085 65.47854816 16 64 C10.23414204 58.46344978 6.35846496 50.2738273 2.25 43.5 C0.83870622 41.18139634 -0.5746191 38.86403523 -1.98828125 36.546875 C-2.67100098 35.42732422 -3.3537207 34.30777344 -4.05712891 33.15429688 C-5.75317859 30.40072035 -7.47715973 27.67044698 -9.23046875 24.953125 C-9.69549805 24.22931641 -10.16052734 23.50550781 -10.63964844 22.75976562 C-11.47464924 21.46673956 -12.31717715 20.17852718 -13.16894531 18.89648438 C-15.49567797 15.27621137 -16.71836037 12.30848714 -17 8 C-15.74488452 3.37176167 -14.83102983 1.52738431 -10.75 -1.0625 C-6.28720264 -2.17819934 -4.19403901 -1.82005466 0 0 Z " fill="#2B69FD" transform="translate(220,23)"/>
</svg>
