<?xml version="1.0" encoding="UTF-8"?>
<svg version="1.1" xmlns="http://www.w3.org/2000/svg" width="512" height="512">
<path d="M0 0 C3.58226337 0.0031485 7.16368811 -0.02036036 10.74584961 -0.0456543 C32.27956067 -0.10560646 53.55402316 1.78372632 74.67358398 6.06567383 C75.96151855 6.32243896 77.24945313 6.5792041 78.57641602 6.84375 C134.30493948 18.16573748 187.83969162 42.6256235 229.04858398 82.31567383 C230.03761719 83.26385986 230.03761719 83.26385986 231.04663086 84.23120117 C240.5341016 93.37489164 249.2361766 102.7006742 257.04858398 113.31567383 C257.62479492 113.99887695 258.20100586 114.68208008 258.79467773 115.38598633 C261.39378666 119.38586112 260.9521446 123.78605952 260.04858398 128.31567383 C256.22184733 135.68914202 250.02947659 141.73877844 244.40405273 147.77270508 C242.46412292 149.86705717 240.62365637 151.99782867 238.79858398 154.19067383 C229.48820043 164.85291636 218.34269356 173.85628977 207.04858398 182.31567383 C206.23019043 182.93539062 206.23019043 182.93539062 205.39526367 183.56762695 C195.12183306 191.30796692 184.19454949 197.91453217 173.04858398 204.31567383 C171.9916333 204.92475586 171.9916333 204.92475586 170.91333008 205.54614258 C92.65969774 250.12123716 -7.61762346 256.76727065 -93.51831055 233.34301758 C-134.77712686 221.64848039 -173.61438453 203.52869694 -206.95141602 176.31567383 C-207.48718262 175.8814209 -208.02294922 175.44716797 -208.57495117 174.99975586 C-223.67638274 162.68560452 -237.39394096 149.01923195 -248.95141602 133.31567383 C-249.52375977 132.63891602 -250.09610352 131.9621582 -250.68579102 131.26489258 C-252.90091714 127.85332488 -252.84455902 124.72368758 -252.75219727 120.73754883 C-251.09139613 113.64066202 -245.73145939 108.59456142 -240.95141602 103.31567383 C-240.26950195 102.51000977 -239.58758789 101.7043457 -238.88500977 100.87426758 C-236.64993147 98.2779645 -234.32415725 95.7851851 -231.95141602 93.31567383 C-231.28577637 92.62280273 -230.62013672 91.92993164 -229.93432617 91.21606445 C-220.15872571 81.10699039 -210.33870365 71.57928339 -198.95141602 63.31567383 C-197.83762013 62.48433161 -196.72434283 61.6522942 -195.61157227 60.81958008 C-154.37913927 30.3170857 -105.79207325 12.72326505 -55.57641602 4.06567383 C-54.69912842 3.91428955 -53.82184082 3.76290527 -52.91796875 3.60693359 C-49.93401387 3.12561544 -46.94840674 2.70843381 -43.95141602 2.31567383 C-42.95399887 2.18486923 -42.95399887 2.18486923 -41.93643188 2.05142212 C-27.96412565 0.28322621 -14.07262573 -0.02572692 0 0 Z M46.04858398 27.31567383 C49.01641248 29.34726857 49.01641248 29.34726857 52.13061523 31.05786133 C78.62102124 46.07590311 95.77394259 68.61194091 104.04467773 97.83520508 C110.55600642 125.09555245 106.23432105 153.21717195 92.04858398 177.31567383 C81.12522946 194.4130983 66.82358015 206.90228829 49.04858398 216.31567383 C49.04858398 216.64567383 49.04858398 216.97567383 49.04858398 217.31567383 C57.97390069 216.83319953 66.50898231 215.67005171 75.23608398 213.75317383 C76.44659424 213.48778809 77.65710449 213.22240234 78.90429688 212.94897461 C122.43979093 203.11207664 164.37759007 184.71497203 199.04858398 156.31567383 C199.8783374 155.63819092 199.8783374 155.63819092 200.72485352 154.94702148 C212.01941736 145.66900325 222.82649964 135.68442585 232.04858398 124.31567383 C224.85573935 108.18626464 205.04575463 93.54366203 191.04858398 83.31567383 C190.39809082 82.83146973 189.74759766 82.34726562 189.07739258 81.84838867 C178.55302315 74.03351125 167.66200434 67.38144859 156.04858398 61.31567383 C155.37472656 60.96021484 154.70086914 60.60475586 154.0065918 60.23852539 C122.25491456 43.57241585 82.39804002 27.31567383 46.04858398 27.31567383 Z M-212.95141602 110.19067383 C-213.90455688 111.13668457 -213.90455688 111.13668457 -214.87695312 112.10180664 C-218.12462084 115.3612082 -221.16013014 118.6451329 -223.95141602 122.31567383 C-222.35427166 126.13257813 -219.80789073 128.90048041 -217.01391602 131.87817383 C-216.5244751 132.40338623 -216.03503418 132.92859863 -215.53076172 133.46972656 C-214.01109723 135.09159427 -212.48231333 136.70441184 -210.95141602 138.31567383 C-210.06711914 139.25411133 -209.18282227 140.19254883 -208.27172852 141.15942383 C-201.88535989 147.75424959 -195.073344 153.4510415 -187.75317383 158.95385742 C-186.01015508 160.27127728 -184.28865851 161.61301169 -182.56860352 162.96020508 C-142.05693829 194.20828709 -89.56878303 212.88079628 -38.95141602 218.31567383 C-42.17075403 215.78841573 -45.55958706 213.71708548 -49.07641602 211.62817383 C-72.58321065 197.35430373 -89.09779661 175.38904726 -95.98266602 148.73364258 C-102.63117651 120.16422583 -97.45971401 91.43424782 -82.52954102 66.31176758 C-72.95329376 50.98606024 -59.55917509 40.01123191 -44.00610352 31.12817383 C-40.96460555 29.49372339 -40.96460555 29.49372339 -38.95141602 27.31567383 C-102.41738488 27.31567383 -169.40457072 66.91260369 -212.95141602 110.19067383 Z M-54.30688477 69.42895508 C-68.55321956 85.77332492 -75.94541327 106.56572287 -74.73266602 128.22192383 C-73.09097857 146.51183467 -66.06058324 162.49643337 -53.95141602 176.31567383 C-53.06196289 177.34821289 -53.06196289 177.34821289 -52.15454102 178.40161133 C-43.5164907 187.74104179 -31.87910643 194.19431738 -19.95141602 198.31567383 C-19.10321289 198.63407227 -18.25500977 198.9524707 -17.38110352 199.28051758 C2.07403813 205.43469504 23.66967419 201.5913949 41.40405273 192.52075195 C47.17666542 189.41198326 52.20691724 185.74584268 57.04858398 181.31567383 C58.07145508 180.43008789 58.07145508 180.43008789 59.11499023 179.52661133 C73.80595343 166.01437512 81.94064204 145.51987407 83.04467773 125.85864258 C83.07026472 102.65124909 74.7061183 82.53685241 58.58764648 65.75317383 C43.74469472 51.4760824 24.67795865 43.82068196 4.04858398 43.22973633 C-18.52338888 43.8763293 -38.72014861 53.18516682 -54.30688477 69.42895508 Z " fill="#F52C9D" transform="translate(251.951416015625,190.684326171875)"/>
<path d="M0 0 C2.77721307 3.55483273 2.68454071 5.80658688 2.67602539 10.28564453 C2.67617142 10.92967224 2.67631744 11.57369995 2.6764679 12.23724365 C2.6757704 14.36913402 2.66798566 16.50093737 2.66015625 18.6328125 C2.65829149 20.10968986 2.65686786 21.58656784 2.65586853 23.06344604 C2.65204792 26.95312199 2.64222152 30.84276067 2.63116455 34.73242188 C2.62094064 38.70051571 2.61636881 42.66861555 2.61132812 46.63671875 C2.60059885 54.42449616 2.58352789 62.21224286 2.5625 70 C3.24454498 70.02243774 3.92658997 70.04487549 4.62930298 70.06799316 C17.11977478 70.49068078 29.53243268 70.9120256 41.9375 72.5 C43.03964844 72.63019531 44.14179688 72.76039063 45.27734375 72.89453125 C53.09497165 73.84415722 53.09497165 73.84415722 56.5625 75 C56.72801109 74.00726578 56.72801109 74.00726578 56.89686584 72.99447632 C58.09390481 66.08931838 59.66538809 59.36388327 61.49609375 52.6015625 C61.91399925 51.04458145 61.91399925 51.04458145 62.34034729 49.45614624 C62.92549032 47.28247132 63.51299699 45.10943139 64.1027832 42.93701172 C65.00262774 39.61529988 65.88931699 36.2902519 66.77539062 32.96484375 C67.34816372 30.84353529 67.92170444 28.72243391 68.49609375 26.6015625 C68.75869492 25.61193512 69.02129608 24.62230774 69.29185486 23.60269165 C72.34036376 12.48142416 72.34036376 12.48142416 77.5625 9 C82.46398436 8.41576734 87.06225963 8.35703984 91.625 10.3125 C94.02551391 12.40327018 95.4419404 14.06886524 95.85778809 17.28063965 C95.87808413 24.53830631 94.64912269 30.93103874 92.71875 37.90625 C92.28592712 39.5369342 92.28592712 39.5369342 91.84436035 41.20056152 C90.92982438 44.63727321 89.99704248 48.06868039 89.0625 51.5 C88.13146929 54.96072333 87.20428481 58.42243022 86.28063965 61.88513184 C85.70700824 64.03110431 85.12847696 66.17577427 84.54455566 68.31896973 C84.28428589 69.28427612 84.02401611 70.24958252 83.75585938 71.24414062 C83.52491577 72.09254517 83.29397217 72.94094971 83.05603027 73.81506348 C82.45233611 76.1143826 82.45233611 76.1143826 82.5625 79 C83.36131592 79.20568604 84.16013184 79.41137207 84.9831543 79.62329102 C126.07030437 90.25390219 126.07030437 90.25390219 135.5625 95 C135.83779541 94.27578857 136.11309082 93.55157715 136.39672852 92.80541992 C137.5157789 90.11243395 138.78298448 87.65165631 140.21484375 85.11328125 C140.73884766 84.18298096 141.26285156 83.25268066 141.80273438 82.29418945 C142.36283203 81.31023193 142.92292969 80.32627441 143.5 79.3125 C144.3652832 77.79112427 144.3652832 77.79112427 145.24804688 76.23901367 C148.96604594 69.73200515 152.71278069 63.24257172 156.5625 56.8125 C156.99425537 56.07749268 157.42601074 55.34248535 157.87084961 54.58520508 C160.73079877 49.87466783 163.57290825 46.10142854 168.9375 44.125 C172.62822093 43.94925138 175.13848169 44.59370676 178.5625 46 C182.94094749 50.09289657 184.22764053 53.07361928 184.5625 59 C183.62109375 61.90234375 183.62109375 61.90234375 182 64.9375 C181.69989014 65.50742676 181.39978027 66.07735352 181.09057617 66.66455078 C177.12735309 74.05232484 172.81322983 81.2620068 168.53881836 88.47241211 C165.32807078 93.89572674 162.29431798 99.31944549 159.5625 105 C160.76777344 105.35578125 161.97304688 105.7115625 163.21484375 106.078125 C169.20885737 108.08121153 174.74069561 110.91058249 180.33764648 113.82324219 C182.11906104 114.7469206 183.90948997 115.65112061 185.70117188 116.5546875 C202.24175955 125.10729131 202.24175955 125.10729131 204.75 132.5 C204.46134897 137.88815263 203.02608194 141.49686179 199.25 145.375 C196.02060194 147.32765929 194.36180776 148 190.5625 148 C184.02733774 146.38238558 178.28918761 142.74679757 172.5 139.4375 C128.76054023 114.5571924 77.37283087 101.68813234 27.5625 97 C26.64170654 96.9057373 25.72091309 96.81147461 24.7722168 96.71435547 C13.7464598 95.7068527 2.68749094 95.75727282 -8.375 95.75 C-9.97095505 95.74848938 -9.97095505 95.74848938 -11.59915161 95.74694824 C-29.07758458 95.75810619 -46.11077249 96.56744279 -63.4375 99 C-65.01966309 99.20882812 -65.01966309 99.20882812 -66.63378906 99.421875 C-108.87516108 105.06974647 -153.72270318 117.77338895 -190.90625 139.078125 C-191.7940918 139.58617676 -192.68193359 140.09422852 -193.59667969 140.61767578 C-195.26641047 141.58911546 -196.92453726 142.58092272 -198.56738281 143.59716797 C-204.12404604 146.86558449 -208.98499565 148.12711557 -215.4375 147 C-218.82946509 145.29742343 -220.87063334 142.91191593 -222.875 139.6875 C-223.64732309 135.99751189 -223.77968174 132.56116562 -222.4375 129 C-218.30655349 123.84687654 -212.82490667 121.17960456 -207.0625 118.125 C-205.60215332 117.34044434 -205.60215332 117.34044434 -204.11230469 116.54003906 C-182.45242927 105 -182.45242927 105 -178.4375 105 C-182.69948874 96.10130871 -187.51773422 87.61911872 -192.625 79.1875 C-194.04026954 76.85068936 -195.44956029 74.51042055 -196.85546875 72.16796875 C-197.47188232 71.14985107 -198.0882959 70.1317334 -198.72338867 69.08276367 C-201.71417492 63.70394898 -204.21521365 59.09921308 -203.06640625 52.859375 C-201.94150725 49.53358665 -200.24569994 48.03146379 -197.4375 46 C-193.11229411 44.02328117 -190.30025793 43.75555192 -185.6875 45.0625 C-180.73482056 48.0150589 -178.17251914 52.21781269 -175.3359375 57.140625 C-174.48346436 58.61184814 -174.48346436 58.61184814 -173.61376953 60.11279297 C-173.01935059 61.14807129 -172.42493164 62.18334961 -171.8125 63.25 C-170.56812617 65.40388729 -169.32333147 67.55753147 -168.078125 69.7109375 C-167.15870117 71.30373535 -167.15870117 71.30373535 -166.22070312 72.92871094 C-164.59651644 75.726119 -162.95372003 78.51090751 -161.296875 81.2890625 C-160.59812256 82.46227051 -160.59812256 82.46227051 -159.88525391 83.65917969 C-159.02093266 85.10705337 -158.15354717 86.55310339 -157.28271484 87.99707031 C-154.4375 92.7789643 -154.4375 92.7789643 -154.4375 95 C-153.57253906 94.64808594 -152.70757812 94.29617187 -151.81640625 93.93359375 C-116.6144909 80 -116.6144909 80 -100.4375 80 C-100.72271263 78.95549683 -100.72271263 78.95549683 -101.01368713 77.88989258 C-102.80936331 71.30347625 -104.59079201 64.71335223 -106.3565836 58.11886597 C-107.26473781 54.72926928 -108.17819817 51.34129831 -109.10424805 47.95654297 C-110.17043618 44.05863052 -111.21268248 40.15465579 -112.25390625 36.25 C-112.58717422 35.04448486 -112.9204422 33.83896973 -113.2638092 32.59692383 C-114.91728046 26.31863901 -116.05077332 21.35871192 -114.4375 15 C-112.24492191 12.35766231 -110.50410382 10.53330191 -107.4375 9 C-105.23046875 8.796875 -105.23046875 8.796875 -102.625 8.75 C-101.77292969 8.72421875 -100.92085938 8.6984375 -100.04296875 8.671875 C-96.78994932 9.08155061 -95.08860628 10.07876222 -92.4375 12 C-91.18792725 14.28833008 -91.18792725 14.28833008 -90.32714844 16.95703125 C-90.00580933 17.93881348 -89.68447021 18.9205957 -89.35339355 19.93212891 C-87.89052046 24.83215913 -86.50031136 29.74089337 -85.203125 34.6875 C-84.92023621 35.75242676 -84.63734741 36.81735352 -84.34588623 37.91455078 C-83.75533051 40.14242071 -83.16724166 42.37094591 -82.58154297 44.60009766 C-81.68214561 48.02036188 -80.7732675 51.4380083 -79.86328125 54.85546875 C-79.28850296 57.02849791 -78.71426456 59.20166996 -78.140625 61.375 C-77.86881409 62.39682373 -77.59700317 63.41864746 -77.31695557 64.47143555 C-76.94591705 65.88936401 -76.94591705 65.88936401 -76.56738281 67.3359375 C-76.34850403 68.16657715 -76.12962524 68.9972168 -75.90411377 69.85302734 C-75.4375 72 -75.4375 72 -75.4375 75 C-74.179375 74.71125 -72.92125 74.4225 -71.625 74.125 C-59.15392509 71.66566914 -46.46731345 70.91892892 -33.7890625 70.44140625 C-32.69118408 70.39794067 -31.59330566 70.3544751 -30.4621582 70.30969238 C-27.78735422 70.20412717 -25.11248194 70.10093705 -22.4375 70 C-22.44749275 68.83941322 -22.44749275 68.83941322 -22.45768738 67.65538025 C-22.51793917 60.34365612 -22.56354554 53.03205333 -22.59293652 45.72014523 C-22.60855498 41.96151527 -22.62972268 38.20309143 -22.66381836 34.44458008 C-22.69654917 30.81356865 -22.71438171 27.18275477 -22.72213173 23.55160713 C-22.72765075 22.17019099 -22.73842791 20.78878498 -22.75469017 19.40745354 C-22.90744023 5.88814259 -22.90744023 5.88814259 -19.4375 0 C-13.86876954 -5.56873046 -5.82165971 -4.77674643 0 0 Z " fill="#AB37E3" transform="translate(265.4375,79)"/>
<path d="M0 0 C8.2494348 6.67498999 14.40559997 16.45343584 16 27 C17.2617246 41.0327629 16.24485966 53.1576979 7.6875 64.875 C6.48998719 66.27765419 5.26113492 67.65426064 4 69 C3.41605469 69.62519531 2.83210938 70.25039063 2.23046875 70.89453125 C-8.68559336 81.44289443 -21.50130376 83.48803398 -35.92578125 83.27734375 C-48.41032218 82.81444157 -58.87562095 76.94119483 -67.37109375 67.97265625 C-76.21045952 57.26790874 -79.64281123 44.76010101 -78.8203125 30.9921875 C-77.08900714 17.45973948 -70.05456661 6.24111156 -59.328125 -2.0703125 C-40.93360227 -14.48921344 -17.82279764 -12.86341047 0 0 Z M-48.3359375 22.12890625 C-53.08297146 27.46653364 -53.60330089 33.1811039 -53.4140625 40.0625 C-52.57692255 46.0014551 -49.37680093 49.96309243 -45 53.875 C-38.58704215 58.41751181 -32.69009284 58.79000954 -25 58 C-18.00251429 56.05560713 -13.56719943 51.18488674 -9.859375 45.140625 C-7.8355085 40.09935754 -8.21767566 33.8201153 -9.65234375 28.6484375 C-12.31281529 22.73374111 -16.53591607 18.39510979 -22.5703125 15.96484375 C-32.7767948 12.76601912 -40.53581144 14.65508028 -48.3359375 22.12890625 Z " fill="#FF1FB1" transform="translate(287,277)"/>
</svg>
